<mxfile host="app.diagrams.net" agent="Mozilla/5.0 (Windows NT 10.0; Win64; x64) AppleWebKit/537.36 (KHTML, like Gecko) Chrome/133.0.0.0 Safari/537.36" version="26.1.0">
  <diagram name="Página-1" id="NZP_iLBFdR2eeNjAjwfa">
    <mxGraphModel dx="1154" dy="502" grid="1" gridSize="10" guides="1" tooltips="1" connect="1" arrows="1" fold="1" page="1" pageScale="1" pageWidth="827" pageHeight="1169" background="none" math="0" shadow="0">
      <root>
        <mxCell id="0" />
        <mxCell id="1" parent="0" />
        <mxCell id="WLWEficBZStUIhM7WNx5-41" value="secretaria escolar" style="shape=umlActor;verticalLabelPosition=bottom;verticalAlign=top;html=1;outlineConnect=0;" parent="1" vertex="1">
          <mxGeometry x="210" y="300" width="50" height="100" as="geometry" />
        </mxCell>
        <mxCell id="WLWEficBZStUIhM7WNx5-44" value="professor" style="shape=umlActor;verticalLabelPosition=bottom;verticalAlign=top;html=1;outlineConnect=0;" parent="1" vertex="1">
          <mxGeometry x="620" y="300" width="50" height="100" as="geometry" />
        </mxCell>
        <mxCell id="WLWEficBZStUIhM7WNx5-45" value="aluno" style="shape=umlActor;verticalLabelPosition=bottom;verticalAlign=top;html=1;outlineConnect=0;" parent="1" vertex="1">
          <mxGeometry x="700" y="300" width="50" height="100" as="geometry" />
        </mxCell>
        <mxCell id="WLWEficBZStUIhM7WNx5-76" style="edgeStyle=orthogonalEdgeStyle;rounded=0;orthogonalLoop=1;jettySize=auto;html=1;" parent="1" source="WLWEficBZStUIhM7WNx5-46" edge="1">
          <mxGeometry relative="1" as="geometry">
            <mxPoint x="200" y="340" as="targetPoint" />
            <Array as="points">
              <mxPoint x="120" y="390" />
              <mxPoint x="180" y="390" />
              <mxPoint x="180" y="340" />
            </Array>
          </mxGeometry>
        </mxCell>
        <mxCell id="WLWEficBZStUIhM7WNx5-46" value="cadastrar alunos" style="ellipse;whiteSpace=wrap;html=1;" parent="1" vertex="1">
          <mxGeometry x="60" y="190" width="130" height="70" as="geometry" />
        </mxCell>
        <mxCell id="WLWEficBZStUIhM7WNx5-77" style="edgeStyle=orthogonalEdgeStyle;rounded=0;orthogonalLoop=1;jettySize=auto;html=1;" parent="1" source="WLWEficBZStUIhM7WNx5-47" edge="1">
          <mxGeometry relative="1" as="geometry">
            <mxPoint x="700" y="270" as="targetPoint" />
            <Array as="points">
              <mxPoint x="635" y="125" />
              <mxPoint x="770" y="126" />
            </Array>
          </mxGeometry>
        </mxCell>
        <mxCell id="WLWEficBZStUIhM7WNx5-78" style="edgeStyle=orthogonalEdgeStyle;rounded=0;orthogonalLoop=1;jettySize=auto;html=1;" parent="1" source="WLWEficBZStUIhM7WNx5-47" edge="1">
          <mxGeometry relative="1" as="geometry">
            <mxPoint x="210" y="270" as="targetPoint" />
          </mxGeometry>
        </mxCell>
        <mxCell id="WLWEficBZStUIhM7WNx5-47" value="consultar livros" style="ellipse;whiteSpace=wrap;html=1;" parent="1" vertex="1">
          <mxGeometry x="380" y="90" width="130" height="70" as="geometry" />
        </mxCell>
        <mxCell id="WLWEficBZStUIhM7WNx5-74" style="edgeStyle=orthogonalEdgeStyle;rounded=0;orthogonalLoop=1;jettySize=auto;html=1;" parent="1" source="WLWEficBZStUIhM7WNx5-48" edge="1">
          <mxGeometry relative="1" as="geometry">
            <mxPoint x="670" y="270" as="targetPoint" />
            <Array as="points">
              <mxPoint x="670" y="255" />
            </Array>
          </mxGeometry>
        </mxCell>
        <mxCell id="WLWEficBZStUIhM7WNx5-75" style="edgeStyle=orthogonalEdgeStyle;rounded=0;orthogonalLoop=1;jettySize=auto;html=1;" parent="1" source="WLWEficBZStUIhM7WNx5-48" edge="1">
          <mxGeometry relative="1" as="geometry">
            <mxPoint x="240" y="270" as="targetPoint" />
            <Array as="points">
              <mxPoint x="299" y="255" />
              <mxPoint x="299" y="256" />
              <mxPoint x="240" y="256" />
            </Array>
          </mxGeometry>
        </mxCell>
        <mxCell id="WLWEficBZStUIhM7WNx5-48" value="fazer reserva livros" style="ellipse;whiteSpace=wrap;html=1;" parent="1" vertex="1">
          <mxGeometry x="357" y="220" width="126" height="70" as="geometry" />
        </mxCell>
        <mxCell id="WLWEficBZStUIhM7WNx5-69" style="edgeStyle=orthogonalEdgeStyle;rounded=0;orthogonalLoop=1;jettySize=auto;html=1;" parent="1" source="WLWEficBZStUIhM7WNx5-50" edge="1">
          <mxGeometry relative="1" as="geometry">
            <mxPoint x="230" y="460" as="targetPoint" />
          </mxGeometry>
        </mxCell>
        <mxCell id="WLWEficBZStUIhM7WNx5-70" style="edgeStyle=orthogonalEdgeStyle;rounded=0;orthogonalLoop=1;jettySize=auto;html=1;" parent="1" source="WLWEficBZStUIhM7WNx5-50" edge="1">
          <mxGeometry relative="1" as="geometry">
            <mxPoint x="750" y="460" as="targetPoint" />
          </mxGeometry>
        </mxCell>
        <mxCell id="WLWEficBZStUIhM7WNx5-50" value="fazer devolução livros" style="ellipse;whiteSpace=wrap;html=1;" parent="1" vertex="1">
          <mxGeometry x="460" y="500" width="140" height="80" as="geometry" />
        </mxCell>
        <mxCell id="WLWEficBZStUIhM7WNx5-71" style="edgeStyle=orthogonalEdgeStyle;rounded=0;orthogonalLoop=1;jettySize=auto;html=1;" parent="1" source="WLWEficBZStUIhM7WNx5-51" edge="1">
          <mxGeometry relative="1" as="geometry">
            <mxPoint x="600" y="360" as="targetPoint" />
          </mxGeometry>
        </mxCell>
        <mxCell id="WLWEficBZStUIhM7WNx5-72" style="edgeStyle=orthogonalEdgeStyle;rounded=0;orthogonalLoop=1;jettySize=auto;html=1;" parent="1" source="WLWEficBZStUIhM7WNx5-51" edge="1">
          <mxGeometry relative="1" as="geometry">
            <mxPoint x="300" y="360" as="targetPoint" />
          </mxGeometry>
        </mxCell>
        <mxCell id="WLWEficBZStUIhM7WNx5-51" value="fazer empréstimo livro" style="ellipse;whiteSpace=wrap;html=1;" parent="1" vertex="1">
          <mxGeometry x="357" y="330" width="123" height="60" as="geometry" />
        </mxCell>
        <mxCell id="WLWEficBZStUIhM7WNx5-52" style="edgeStyle=orthogonalEdgeStyle;rounded=0;orthogonalLoop=1;jettySize=auto;html=1;exitX=0.5;exitY=1;exitDx=0;exitDy=0;" parent="1" source="WLWEficBZStUIhM7WNx5-47" target="WLWEficBZStUIhM7WNx5-47" edge="1">
          <mxGeometry relative="1" as="geometry" />
        </mxCell>
        <mxCell id="ZVa0PsZYlj9GtE2vqMj9-1" value="Orgchart" style="swimlane;startSize=20;horizontal=1;containerType=tree;newEdgeStyle={&quot;edgeStyle&quot;:&quot;elbowEdgeStyle&quot;,&quot;startArrow&quot;:&quot;none&quot;,&quot;endArrow&quot;:&quot;none&quot;};" vertex="1" parent="1">
          <mxGeometry x="190" y="700" width="410" height="420" as="geometry" />
        </mxCell>
        <mxCell id="ZVa0PsZYlj9GtE2vqMj9-2" value="" style="edgeStyle=elbowEdgeStyle;elbow=vertical;sourcePerimeterSpacing=0;targetPerimeterSpacing=0;startArrow=none;endArrow=none;rounded=0;curved=0;" edge="1" parent="ZVa0PsZYlj9GtE2vqMj9-1" source="ZVa0PsZYlj9GtE2vqMj9-4" target="ZVa0PsZYlj9GtE2vqMj9-5">
          <mxGeometry relative="1" as="geometry" />
        </mxCell>
        <UserObject label="sistema escolar" treeRoot="1" id="ZVa0PsZYlj9GtE2vqMj9-4">
          <mxCell style="whiteSpace=wrap;html=1;align=center;treeFolding=1;treeMoving=1;newEdgeStyle={&quot;edgeStyle&quot;:&quot;elbowEdgeStyle&quot;,&quot;startArrow&quot;:&quot;none&quot;,&quot;endArrow&quot;:&quot;none&quot;};" vertex="1" parent="ZVa0PsZYlj9GtE2vqMj9-1">
            <mxGeometry x="150" y="30" width="120" height="60" as="geometry" />
          </mxCell>
        </UserObject>
        <mxCell id="ZVa0PsZYlj9GtE2vqMj9-5" value="cadastrar alunos" style="whiteSpace=wrap;html=1;align=center;verticalAlign=middle;treeFolding=1;treeMoving=1;newEdgeStyle={&quot;edgeStyle&quot;:&quot;elbowEdgeStyle&quot;,&quot;startArrow&quot;:&quot;none&quot;,&quot;endArrow&quot;:&quot;none&quot;};" vertex="1" parent="ZVa0PsZYlj9GtE2vqMj9-1">
          <mxGeometry x="160" y="130" width="100" height="60" as="geometry" />
        </mxCell>
        <mxCell id="ZVa0PsZYlj9GtE2vqMj9-11" value="" style="edgeStyle=elbowEdgeStyle;elbow=vertical;sourcePerimeterSpacing=0;targetPerimeterSpacing=0;startArrow=none;endArrow=none;rounded=0;curved=0;" edge="1" target="ZVa0PsZYlj9GtE2vqMj9-12" source="ZVa0PsZYlj9GtE2vqMj9-5" parent="ZVa0PsZYlj9GtE2vqMj9-1">
          <mxGeometry relative="1" as="geometry">
            <mxPoint x="400" y="790" as="sourcePoint" />
          </mxGeometry>
        </mxCell>
        <mxCell id="ZVa0PsZYlj9GtE2vqMj9-12" value="fazer reserva livros" style="whiteSpace=wrap;html=1;align=center;verticalAlign=middle;treeFolding=1;treeMoving=1;newEdgeStyle={&quot;edgeStyle&quot;:&quot;elbowEdgeStyle&quot;,&quot;startArrow&quot;:&quot;none&quot;,&quot;endArrow&quot;:&quot;none&quot;};" vertex="1" parent="ZVa0PsZYlj9GtE2vqMj9-1">
          <mxGeometry x="160" y="230" width="100" height="60" as="geometry" />
        </mxCell>
        <mxCell id="ZVa0PsZYlj9GtE2vqMj9-15" value="" style="edgeStyle=elbowEdgeStyle;elbow=vertical;sourcePerimeterSpacing=0;targetPerimeterSpacing=0;startArrow=none;endArrow=none;rounded=0;curved=0;" edge="1" target="ZVa0PsZYlj9GtE2vqMj9-16" source="ZVa0PsZYlj9GtE2vqMj9-5" parent="ZVa0PsZYlj9GtE2vqMj9-1">
          <mxGeometry relative="1" as="geometry">
            <mxPoint x="400" y="890" as="sourcePoint" />
          </mxGeometry>
        </mxCell>
        <mxCell id="ZVa0PsZYlj9GtE2vqMj9-16" value="fazer devolução livros" style="whiteSpace=wrap;html=1;align=center;verticalAlign=middle;treeFolding=1;treeMoving=1;newEdgeStyle={&quot;edgeStyle&quot;:&quot;elbowEdgeStyle&quot;,&quot;startArrow&quot;:&quot;none&quot;,&quot;endArrow&quot;:&quot;none&quot;};" vertex="1" parent="ZVa0PsZYlj9GtE2vqMj9-1">
          <mxGeometry x="270" y="230" width="100" height="60" as="geometry" />
        </mxCell>
        <mxCell id="ZVa0PsZYlj9GtE2vqMj9-17" value="" style="edgeStyle=elbowEdgeStyle;elbow=vertical;sourcePerimeterSpacing=0;targetPerimeterSpacing=0;startArrow=none;endArrow=none;rounded=0;curved=0;" edge="1" target="ZVa0PsZYlj9GtE2vqMj9-18" source="ZVa0PsZYlj9GtE2vqMj9-5" parent="ZVa0PsZYlj9GtE2vqMj9-1">
          <mxGeometry relative="1" as="geometry">
            <mxPoint x="400" y="890" as="sourcePoint" />
          </mxGeometry>
        </mxCell>
        <mxCell id="ZVa0PsZYlj9GtE2vqMj9-18" value="fazer empréstimo livro" style="whiteSpace=wrap;html=1;align=center;verticalAlign=middle;treeFolding=1;treeMoving=1;newEdgeStyle={&quot;edgeStyle&quot;:&quot;elbowEdgeStyle&quot;,&quot;startArrow&quot;:&quot;none&quot;,&quot;endArrow&quot;:&quot;none&quot;};" vertex="1" parent="ZVa0PsZYlj9GtE2vqMj9-1">
          <mxGeometry x="50" y="230" width="100" height="60" as="geometry" />
        </mxCell>
        <mxCell id="ZVa0PsZYlj9GtE2vqMj9-19" value="" style="edgeStyle=elbowEdgeStyle;elbow=vertical;sourcePerimeterSpacing=0;targetPerimeterSpacing=0;startArrow=none;endArrow=none;rounded=0;curved=0;" edge="1" target="ZVa0PsZYlj9GtE2vqMj9-20" source="ZVa0PsZYlj9GtE2vqMj9-12" parent="ZVa0PsZYlj9GtE2vqMj9-1">
          <mxGeometry relative="1" as="geometry">
            <mxPoint x="400" y="890" as="sourcePoint" />
          </mxGeometry>
        </mxCell>
        <mxCell id="ZVa0PsZYlj9GtE2vqMj9-20" value="consultar livros" style="whiteSpace=wrap;html=1;align=center;verticalAlign=middle;treeFolding=1;treeMoving=1;newEdgeStyle={&quot;edgeStyle&quot;:&quot;elbowEdgeStyle&quot;,&quot;startArrow&quot;:&quot;none&quot;,&quot;endArrow&quot;:&quot;none&quot;};" vertex="1" parent="ZVa0PsZYlj9GtE2vqMj9-1">
          <mxGeometry x="160" y="330" width="100" height="60" as="geometry" />
        </mxCell>
      </root>
    </mxGraphModel>
  </diagram>
</mxfile>
